<svg xmlns="http://www.w3.org/2000/svg" viewBox="0 0 1080 1080"><defs><style>.cls-1{fill:#fff;}</style></defs><title>MARCA_4</title><g id="Camada_3" data-name="Camada 3"><rect width="1080" height="1080"/></g><g id="Camada_2" data-name="Camada 2"><path class="cls-1" d="M428.12,670.48q-38.25,0-70.34-12.51a163.86,163.86,0,0,1-92.53-89Q252,538.3,252,501.48T265.25,434a163,163,0,0,1,37.06-53.58A167.65,167.65,0,0,1,358.25,345q32.1-12.51,70.81-12.51,39.18,0,71.75,12.75a150.81,150.81,0,0,1,36.36,20.52,154.17,154.17,0,0,1,16.57,14.55l-29,31a128.76,128.76,0,0,0-42.15-27.62c-22.41-9-41.36-9.21-51.69-9.21a144.28,144.28,0,0,0-52.64,9.44,125.53,125.53,0,0,0-42,26.44,117.64,117.64,0,0,0-27.38,40.36,131.38,131.38,0,0,0-9.68,50.75,130.05,130.05,0,0,0,9.68,50.27,120.07,120.07,0,0,0,27.38,40.6A124,124,0,0,0,378.08,619q24.07,9.45,52.4,9.44a156.56,156.56,0,0,0,50.74-8.26q24.31-8.25,45.09-27.61l26.9,35.87q-24.54,20.79-57.35,31.4A218.67,218.67,0,0,1,428.12,670.48Zm79.77-48.15V499.59h45.32V628.46Z"/><path class="cls-1" d="M633.21,336.26H600.48l0,32.75Z"/><path class="cls-1" d="M827.87,625.48l-180.19.15V383.2l-47.29,47.29q-.07,99-.17,198a167.19,167.19,0,0,0,28.65,20c8.69,4.8,23.22,11.81,45,17,25.38,6,40.12,4.72,100.07,4.36,12.18-.08,30.78-.14,53.77,0C827.34,655.1,828.25,640.21,827.87,625.48Z"/><path class="cls-1" d="M461,689.48a182.34,182.34,0,0,0,117-36,185.41,185.41,0,0,0,117,36c-17,4.1-51.62,9.71-89-5a137.24,137.24,0,0,1-28-15,149.77,149.77,0,0,1-39,18C505.42,697.41,476.32,693,461,689.48Z"/><path class="cls-1" d="M258.92,742.34a12.48,12.48,0,0,1-3.73-.56,8.06,8.06,0,0,1-2.83-1.44l1.07-2.4a8.85,8.85,0,0,0,2.47,1.31,9,9,0,0,0,3,.52,6.55,6.55,0,0,0,2.12-.28,2.53,2.53,0,0,0,1.19-.78,1.75,1.75,0,0,0,.38-1.1,1.52,1.52,0,0,0-.55-1.23,4,4,0,0,0-1.41-.73,18.46,18.46,0,0,0-1.93-.51c-.7-.16-1.41-.35-2.12-.56a8.78,8.78,0,0,1-1.92-.84,4.2,4.2,0,0,1-1.42-1.36,4,4,0,0,1-.54-2.19,4.52,4.52,0,0,1,.72-2.48,5,5,0,0,1,2.21-1.81,9.14,9.14,0,0,1,3.77-.68,12,12,0,0,1,3,.38,8.6,8.6,0,0,1,2.57,1.1l-1,2.4a9.1,9.1,0,0,0-4.59-1.31,5.74,5.74,0,0,0-2.08.31,2.5,2.5,0,0,0-1.17.81,1.9,1.9,0,0,0-.37,1.14,1.54,1.54,0,0,0,.54,1.22,3.85,3.85,0,0,0,1.4.73c.58.17,1.23.34,1.94.51s1.42.35,2.13.56a8.71,8.71,0,0,1,1.92.8,3.77,3.77,0,0,1,1.94,3.52,4.47,4.47,0,0,1-.72,2.46,5,5,0,0,1-2.23,1.81A9.23,9.23,0,0,1,258.92,742.34Z"/><path class="cls-1" d="M289.59,742.34a9.92,9.92,0,0,1-3.59-.64,8.75,8.75,0,0,1-2.85-1.8,8,8,0,0,1-1.88-2.71,9,9,0,0,1,0-6.82,8,8,0,0,1,1.88-2.71,8.75,8.75,0,0,1,2.85-1.8,10.28,10.28,0,0,1,7.14,0,8.75,8.75,0,0,1,2.85,1.8,8.12,8.12,0,0,1,1.87,2.71,9,9,0,0,1,0,6.83,7.92,7.92,0,0,1-1.87,2.71,8.89,8.89,0,0,1-2.85,1.79A9.74,9.74,0,0,1,289.59,742.34Zm0-2.71a6.15,6.15,0,0,0,2.33-.43,5.42,5.42,0,0,0,1.85-1.22,6.06,6.06,0,0,0,0-8.4,5.42,5.42,0,0,0-1.85-1.22,6.15,6.15,0,0,0-2.33-.43,6,6,0,0,0-2.32.43,5.52,5.52,0,0,0-3.09,3.08,6.09,6.09,0,0,0,1.22,6.54,5.47,5.47,0,0,0,1.86,1.22A6.11,6.11,0,0,0,289.57,739.63Z"/><path class="cls-1" d="M314.88,742.1V725.46H318v14h8.71v2.61Z"/><path class="cls-1" d="M349.12,742.34a7.23,7.23,0,0,1-5.36-1.93,7.47,7.47,0,0,1-1.94-5.56v-9.39h3.09v9.27a5.31,5.31,0,0,0,1.1,3.73,4.76,4.76,0,0,0,6.25,0,5.36,5.36,0,0,0,1.09-3.73v-9.27h3v9.39a7.47,7.47,0,0,1-1.94,5.56A7.21,7.21,0,0,1,349.12,742.34Z"/><path class="cls-1" d="M381.5,742.34a9.67,9.67,0,0,1-3.53-.63,8.51,8.51,0,0,1-2.83-1.78,8.1,8.1,0,0,1-1.87-2.73,9.06,9.06,0,0,1,0-6.84,8,8,0,0,1,1.88-2.73,8.71,8.71,0,0,1,2.83-1.78,9.65,9.65,0,0,1,3.54-.63,9.76,9.76,0,0,1,3.73.7A7.32,7.32,0,0,1,388.1,728l-2,1.88a6.09,6.09,0,0,0-2-1.46,6,6,0,0,0-2.43-.49,6.35,6.35,0,0,0-2.39.43,5.78,5.78,0,0,0-1.88,1.21,5.49,5.49,0,0,0-1.23,1.86,6.5,6.5,0,0,0,0,4.7,5.49,5.49,0,0,0,1.23,1.86,5.78,5.78,0,0,0,1.88,1.21,6.35,6.35,0,0,0,2.39.43,5.76,5.76,0,0,0,4.45-2l2,1.91a7.6,7.6,0,0,1-2.85,2.07A9.64,9.64,0,0,1,381.5,742.34Zm-1.12,5.18a4.93,4.93,0,0,1-1.19-.13,4.23,4.23,0,0,1-1-.37l.55-1.4a3.62,3.62,0,0,0,1.61.38,1.55,1.55,0,0,0,1-.24.76.76,0,0,0,.28-.62.68.68,0,0,0-.29-.57,1.72,1.72,0,0,0-1-.21h-.73l.64-2.43h1.62l-.34,1.34a2.36,2.36,0,0,1,1.56.67,2,2,0,0,1-.37,3A4,4,0,0,1,380.38,747.52Z"/><path class="cls-1" d="M411.59,742.34a10,10,0,0,1-3.59-.64,8.75,8.75,0,0,1-2.85-1.8,8,8,0,0,1-1.88-2.71,9.14,9.14,0,0,1,0-6.82,8,8,0,0,1,1.88-2.71,8.75,8.75,0,0,1,2.85-1.8,10.3,10.3,0,0,1,7.15,0,8.81,8.81,0,0,1,2.84,1.8,8,8,0,0,1,1.87,2.71,9,9,0,0,1,0,6.83,7.79,7.79,0,0,1-1.87,2.71,9,9,0,0,1-2.84,1.79A9.8,9.8,0,0,1,411.59,742.34Zm0-2.71a6.15,6.15,0,0,0,2.33-.43,5.42,5.42,0,0,0,1.85-1.22,5.86,5.86,0,0,0,1.23-1.86,6.44,6.44,0,0,0,0-4.68,5.86,5.86,0,0,0-1.23-1.86,5.42,5.42,0,0,0-1.85-1.22,6.15,6.15,0,0,0-2.33-.43,6.06,6.06,0,0,0-2.32.43,5.52,5.52,0,0,0-1.85,1.22,5.72,5.72,0,0,0-1.24,1.86,6.42,6.42,0,0,0,0,4.67,5.87,5.87,0,0,0,1.22,1.87,5.56,5.56,0,0,0,1.86,1.22A6.11,6.11,0,0,0,411.57,739.63Zm1.71-15.53a2.29,2.29,0,0,1-1-.22,3.69,3.69,0,0,1-.84-.55c-.24-.21-.48-.4-.7-.56a1.1,1.1,0,0,0-.66-.23,1,1,0,0,0-.81.38,1.77,1.77,0,0,0-.36,1h-1.59a3.87,3.87,0,0,1,.72-2.33,2.24,2.24,0,0,1,1.85-.85,2.37,2.37,0,0,1,1,.23,4.28,4.28,0,0,1,.85.55c.24.21.48.39.7.55a1.09,1.09,0,0,0,.64.24,1,1,0,0,0,.82-.36,1.52,1.52,0,0,0,.34-1h1.6a3.64,3.64,0,0,1-.72,2.25A2.22,2.22,0,0,1,413.28,724.1Z"/><path class="cls-1" d="M440,739.51h9.39v2.59H436.89V725.46H449v2.59h-9Zm-.24-7.13H448v2.54h-8.27Z"/><path class="cls-1" d="M471.05,742.34a12.43,12.43,0,0,1-3.73-.56,8,8,0,0,1-2.83-1.44l1.07-2.4a8.71,8.71,0,0,0,2.47,1.31,8.92,8.92,0,0,0,3,.52,6.49,6.49,0,0,0,2.11-.28,2.48,2.48,0,0,0,1.19-.78,1.69,1.69,0,0,0,.38-1.1,1.54,1.54,0,0,0-.54-1.23,4,4,0,0,0-1.42-.73,18.92,18.92,0,0,0-1.92-.51c-.71-.16-1.42-.35-2.12-.56a8.66,8.66,0,0,1-1.93-.84,4.17,4.17,0,0,1-1.41-1.36,4,4,0,0,1-.55-2.19,4.44,4.44,0,0,1,.73-2.48,4.92,4.92,0,0,1,2.21-1.81,9.14,9.14,0,0,1,3.77-.68,12,12,0,0,1,3,.38,8.71,8.71,0,0,1,2.57,1.1l-1,2.4a8.74,8.74,0,0,0-2.3-1,9,9,0,0,0-2.29-.32,5.77,5.77,0,0,0-2.08.31,2.41,2.41,0,0,0-1.16.81,1.83,1.83,0,0,0-.37,1.14,1.56,1.56,0,0,0,.53,1.22,3.9,3.9,0,0,0,1.41.73c.58.17,1.22.34,1.93.51s1.43.35,2.13.56a8.59,8.59,0,0,1,1.93.8,4,4,0,0,1,1.4,1.36,4,4,0,0,1,.54,2.16,4.48,4.48,0,0,1-.73,2.46,4.9,4.9,0,0,1-2.22,1.81A9.23,9.23,0,0,1,471.05,742.34Z"/><path class="cls-1" d="M513.55,742.1V725.46h3.09V742.1Z"/><path class="cls-1" d="M534.21,742.1V725.46h2.55L544,737.61H542.7l7.15-12.15h2.55l0,16.64H549.5l0-12.05h.62L544,740.2h-1.38l-6.18-10.15h.71V742.1Z"/><path class="cls-1" d="M577.79,742.34a9.92,9.92,0,0,1-3.59-.64,8.69,8.69,0,0,1-2.86-1.8,8.12,8.12,0,0,1-1.87-2.71,9,9,0,0,1,0-6.82,8.12,8.12,0,0,1,1.87-2.71,8.69,8.69,0,0,1,2.86-1.8,10.28,10.28,0,0,1,7.14,0,8.7,8.7,0,0,1,2.84,1.8,8,8,0,0,1,1.88,2.71,9,9,0,0,1,0,6.83,7.81,7.81,0,0,1-1.88,2.71,8.85,8.85,0,0,1-2.84,1.79A9.74,9.74,0,0,1,577.79,742.34Zm0-2.71a6.11,6.11,0,0,0,2.33-.43A5.47,5.47,0,0,0,582,738a5.83,5.83,0,0,0,1.22-1.86,6.44,6.44,0,0,0,0-4.68,5.83,5.83,0,0,0-1.22-1.86,5.47,5.47,0,0,0-1.86-1.22,6.11,6.11,0,0,0-2.33-.43,6,6,0,0,0-2.31.43,5.56,5.56,0,0,0-1.86,1.22,5.88,5.88,0,0,0-1.24,1.86,6.05,6.05,0,0,0,1.23,6.54,5.42,5.42,0,0,0,1.85,1.22A6.15,6.15,0,0,0,577.76,739.63Z"/><path class="cls-1" d="M603.08,742.1V725.46h7.8a7.45,7.45,0,0,1,4.56,1.18,3.72,3.72,0,0,1,1.57,3.15,4,4,0,0,1-.62,2.27,4.14,4.14,0,0,1-1.65,1.45,5,5,0,0,1-2.24.51l.42-.86a6,6,0,0,1,2.52.51,4.11,4.11,0,0,1,1.77,1.49,4.23,4.23,0,0,1,.66,2.42,3.88,3.88,0,0,1-1.64,3.33,8.32,8.32,0,0,1-4.88,1.19Zm3.09-2.42h5a5,5,0,0,0,2.67-.58,2.26,2.26,0,0,0,0-3.64,5,5,0,0,0-2.67-.59h-5.23v-2.4h4.62a4.53,4.53,0,0,0,2.48-.57,1.91,1.91,0,0,0,.87-1.71,2,2,0,0,0-.87-1.74,4.53,4.53,0,0,0-2.48-.57h-4.38Z"/><path class="cls-1" d="M634.25,742.1V725.46h3.09V742.1Z"/><path class="cls-1" d="M654.91,742.1V725.46H658v14h8.7v2.61Z"/><path class="cls-1" d="M682.22,742.1V725.46h3.09V742.1Z"/><path class="cls-1" d="M700.53,742.1,708,725.46h3l7.51,16.64h-3.23l-6.45-15h1.24l-6.42,15Zm3.44-3.85.83-2.43h9l.83,2.43Zm3.57-14.15,3.21-3.25h3.49l-4.13,3.25Z"/><path class="cls-1" d="M733.76,742.1V725.46h6.85a9.29,9.29,0,0,1,3.79.71,5.52,5.52,0,0,1,2.43,2.05,6.22,6.22,0,0,1,0,6.31,5.46,5.46,0,0,1-2.43,2,9.29,9.29,0,0,1-3.79.7h-5.14l1.38-1.4v6.25Zm3.09-5.92-1.38-1.47h5a4.68,4.68,0,0,0,3.08-.88,3.06,3.06,0,0,0,1-2.45,3,3,0,0,0-1-2.45,4.73,4.73,0,0,0-3.08-.86h-5l1.38-1.52Zm7.8,5.92-4.21-6h3.3l4.24,6Z"/><path class="cls-1" d="M764.21,742.1V725.46h3.09V742.1Z"/><path class="cls-1" d="M782.52,742.1,790,725.46h3l7.51,16.64h-3.23l-6.44-15h1.23l-6.42,15Zm3.44-3.85.84-2.43h9l.83,2.43Z"/><path class="cls-1" d="M820.91,742.34a12.48,12.48,0,0,1-3.73-.56,8.06,8.06,0,0,1-2.83-1.44l1.07-2.4a8.71,8.71,0,0,0,2.47,1.31,8.92,8.92,0,0,0,3,.52,6.55,6.55,0,0,0,2.12-.28,2.49,2.49,0,0,0,1.18-.78,1.69,1.69,0,0,0,.38-1.1,1.54,1.54,0,0,0-.54-1.23,4,4,0,0,0-1.42-.73,18.24,18.24,0,0,0-1.92-.51c-.71-.16-1.41-.35-2.12-.56a8.78,8.78,0,0,1-1.92-.84,4.2,4.2,0,0,1-1.42-1.36,4,4,0,0,1-.54-2.19,4.52,4.52,0,0,1,.72-2.48,4.92,4.92,0,0,1,2.21-1.81,9.14,9.14,0,0,1,3.77-.68,12,12,0,0,1,3,.38,8.71,8.71,0,0,1,2.57,1.1l-1,2.4a8.74,8.74,0,0,0-2.3-1,9,9,0,0,0-2.28-.32,5.74,5.74,0,0,0-2.08.31,2.45,2.45,0,0,0-1.17.81,1.83,1.83,0,0,0-.37,1.14,1.54,1.54,0,0,0,.54,1.22,3.77,3.77,0,0,0,1.4.73c.58.17,1.22.34,1.94.51s1.42.35,2.13.56a8.71,8.71,0,0,1,1.92.8,3.81,3.81,0,0,1,1.94,3.52,4.4,4.4,0,0,1-.73,2.46,4.9,4.9,0,0,1-2.22,1.81A9.23,9.23,0,0,1,820.91,742.34Z"/></g></svg>